<svg width="55" height="75" viewBox="0 0 55 75" fill="none" xmlns="http://www.w3.org/2000/svg">
<path d="M15 67.6667C16.3333 67.0444 15.5556 59.1111 15 55.2222L15.8333 51.3333L30 49C30 50.2963 29.8333 53.9778 29.1667 58.3333C28.5 62.6889 20.5556 67.9259 16.6667 70L15 67.6667Z" fill="#A74C4C" stroke="#44839C" stroke-width="0.5"/>
<path d="M14.3148 58.5824L12.7586 55.4699H15.093L14.3148 58.5824Z" fill="#D9D9D9"/>
<path d="M18.9837 59.3606L15.8711 55.4699L18.2056 53.9136L18.9837 59.3606Z" fill="#D9D9D9"/>
<path d="M11.9804 71.0327C10.4241 68.6982 7.31158 63.7181 7.31158 62.4731L13.5367 69.3899V65.5857L16.6493 70.2545L13.5367 71.0327V70.5139L11.9804 71.0327Z" fill="#D9D9D9"/>
<path d="M23.6525 60.9168L24.4307 65.5857L25.987 63.2513L23.6525 60.9168Z" fill="#D9D9D9"/>
<path d="M14.3148 58.5824L12.7586 55.4699H15.093L14.3148 58.5824Z" stroke="#44839C" stroke-width="0.5"/>
<path d="M18.9837 59.3606L15.8711 55.4699L18.2056 53.9136L18.9837 59.3606Z" stroke="#44839C" stroke-width="0.5"/>
<path d="M11.9804 71.0327C10.4241 68.6982 7.31158 63.7181 7.31158 62.4731L13.5367 69.3899V65.5857L16.6493 70.2545L13.5367 71.0327V70.5139L11.9804 71.0327Z" stroke="#44839C" stroke-width="0.5"/>
<path d="M23.6525 60.9168L24.4307 65.5857L25.987 63.2513L23.6525 60.9168Z" stroke="#44839C" stroke-width="0.5"/>
<path d="M5.75531 44.1563C5.75531 43.5338 6.79283 42.8594 7.31159 42.6C8.34911 40.2656 11.8248 34.663 17.4274 30.9279C24.4307 26.2591 33.7684 30.9279 37.6591 36.3749C40.7716 40.7325 36.8809 49.0845 34.5465 52.7158C32.4715 56.8659 27.8545 65.3217 25.987 65.9442C23.6525 66.7224 19.7618 71.3912 18.2056 72.1693C16.9605 72.7919 13.5367 73.4662 11.9804 73.7256V70.6131C19.7618 70.6131 21.3181 66.7224 25.2088 64.3879C28.3214 62.5204 29.6183 54.2721 29.8777 50.3814L25.987 53.494H18.9837C17.1162 55.3615 13.5367 55.8284 11.9804 55.8284C13.848 49.6033 8.60849 45.4532 5.75531 44.1563Z" fill="#3E7B8E" stroke="#44839C" stroke-width="0.5"/>
<path d="M2.88582 54.5188C1.6408 52.0287 5.47963 48.8124 7.55467 47.5155C11.4453 44.4029 10.6673 47.5155 11.4454 47.5155C12.2236 47.5155 13.0017 48.2936 13.0017 49.0718C13.0017 49.6943 11.4454 51.4062 10.6673 52.1843C13.0017 49.8499 14.558 50.6281 15.3361 52.1843C15.9586 53.4294 15.0767 53.7406 14.558 53.7406C14.558 52.4437 14.0911 50.6281 12.2236 53.7406C10.356 56.8532 8.33285 57.6313 7.55471 57.6313C6.51718 57.6313 4.13085 57.0088 2.88582 54.5188Z" fill="#7E7D9C" stroke="#486891" stroke-width="0.5"/>
<path d="M46.9968 7.22515C45.7517 5.98012 40.7716 9.30019 38.4372 11.1158C34.8059 12.1534 28.6326 15.629 32.9902 21.2317C37.3478 26.8343 43.1061 22.0098 45.4405 18.8972L46.9968 7.22515Z" fill="#CF5893" stroke="#BB4B84"/>
<path d="M23.6525 11.894C27.3876 5.66884 38.1778 2.03752 43.1061 1C39.371 4.11256 36.8809 15.2659 36.1028 20.4535C37.3997 18.6379 40.9272 14.8509 44.6623 14.2284C48.3974 13.6059 50.3687 10.3377 50.8874 8.78141C54 18.7416 46.9967 26.938 43.1061 29.7912C48.0862 27.3012 52.4437 20.9723 54 18.1191V23.5661C54 26.0561 50.3687 31.8662 48.553 34.46L35.3246 48.4666L31.4339 49.2447L32.2121 51.5791V53.9136L29.8776 56.248V52.3573L25.2088 46.9103H29.0995L25.9869 45.354L26.7651 40.6852L22.8744 39.907C23.4969 34.9269 22.615 34.2007 22.0962 34.46L10.4241 43.0196H6.53344C0.30832 39.1289 0.30832 27.4568 1.8646 32.1256C3.10963 35.8607 6.01468 39.3883 7.31158 40.6852L5.7553 37.5726L4.97716 31.3475L11.2023 18.1191L17.4274 13.4502L15.093 19.6754L17.4274 18.1191C18.6724 13.139 22.0963 9.30017 23.6525 8.00327V11.894Z" fill="#CF5893" stroke="#BB4B84"/>
<path d="M18.2055 47.7884C19.5024 47.0102 21.4737 45.2983 18.9837 44.6758C16.4936 44.0533 15.3523 46.4914 15.093 47.7883L18.2055 47.7884Z" fill="#64FFFF" stroke="#2C3070" stroke-width="0.5"/>
</svg>
